<?xml version="1.0" encoding="UTF-8" standalone="no"?>
<svg
   xmlns:dc="http://purl.org/dc/elements/1.1/"
   xmlns:cc="http://creativecommons.org/ns#"
   xmlns:rdf="http://www.w3.org/1999/02/22-rdf-syntax-ns#"
   xmlns:svg="http://www.w3.org/2000/svg"
   xmlns="http://www.w3.org/2000/svg"
   version="1.1"
   id="svg3630"
   viewBox="0 0 208.3421 300"
   height="300"
   width="208.3421">
  <defs
     id="defs3632" />
  <metadata
     id="metadata3635">
    <rdf:RDF>
      <cc:Work
         rdf:about="">
        <dc:format>image/svg+xml</dc:format>
        <dc:type
           rdf:resource="http://purl.org/dc/dcmitype/StillImage" />
        <dc:title></dc:title>
      </cc:Work>
    </rdf:RDF>
  </metadata>
  <g
     transform="translate(-208.06213,-379.01031)"
     id="layer1">
    <g
       transform="matrix(3.8943075,0,0,-3.8943075,33.230587,2438.6151)"
       id="g3591">
      <g
         id="g74"
         transform="translate(51.9072,452.4258)">
        <path
           d="m 0,0 -1.5,4.235 0.92,0 1.061,-3.134 1.028,3.134 0.899,0 L 0.905,0 0,0 Z m 2.814,4.235 0.847,0 0,-4.235 -0.847,0 0,4.235 z M 4.469,0 l 0,4.235 3.111,0 0,-0.716 -2.264,0 0,-0.938 2.106,0 0,-0.713 -2.106,0 0,-1.154 2.344,0 L 7.66,0 4.469,0 Z m 4.854,0 0,3.519 -1.245,0 0,0.716 3.334,0 0,-0.716 -1.241,0 0,-3.519 -0.848,0 z m 4.273,0 0,4.235 0.824,0 1.718,-2.828 0,2.828 0.788,0 0,-4.235 -0.852,0 -1.69,2.763 0,-2.763 -0.788,0 z m 8.01,0 -0.923,0 -0.367,0.962 -1.676,0 L 18.294,0 l -0.898,0 1.633,4.235 0.896,0 L 21.606,0 Z M 20.045,1.675 19.466,3.247 18.9,1.675 l 1.145,0 z M 22.043,0 l 0,4.235 1.269,0 0.76,-2.888 0.753,2.888 1.27,0 0,-4.235 -0.786,0 0,3.334 L 24.476,0 23.66,0 22.829,3.334 22.829,0 22.043,0 Z m 9.061,0.755 0,-0.755 -2.819,0 c 0.031,0.286 0.122,0.555 0.276,0.812 0.152,0.254 0.453,0.592 0.903,1.015 0.363,0.339 0.585,0.572 0.667,0.693 0.111,0.168 0.166,0.334 0.166,0.497 0,0.181 -0.047,0.32 -0.144,0.417 -0.098,0.098 -0.23,0.146 -0.4,0.146 -0.168,0 -0.301,-0.051 -0.4,-0.152 C 29.254,3.323 29.197,3.156 29.18,2.918 l -0.801,0.08 c 0.048,0.447 0.199,0.768 0.45,0.964 0.253,0.194 0.567,0.292 0.944,0.292 0.415,0 0.741,-0.115 0.977,-0.339 C 30.986,3.69 31.104,3.409 31.104,3.074 31.104,2.884 31.07,2.703 31.003,2.53 30.936,2.356 30.827,2.176 30.682,1.988 30.584,1.863 30.407,1.683 30.155,1.449 29.9,1.213 29.739,1.057 29.672,0.979 29.605,0.903 29.549,0.828 29.506,0.755 l 1.598,0 z m 1.903,3.499 c 0.408,0 0.726,-0.148 0.953,-0.44 0.273,-0.346 0.411,-0.922 0.411,-1.724 0,-0.801 -0.139,-1.378 -0.413,-1.729 -0.226,-0.289 -0.543,-0.433 -0.951,-0.433 -0.407,0 -0.736,0.157 -0.986,0.475 -0.25,0.317 -0.375,0.882 -0.375,1.695 0,0.798 0.138,1.371 0.412,1.722 0.226,0.289 0.543,0.434 0.949,0.434 m 0,-0.674 C 32.911,3.58 32.824,3.549 32.748,3.487 32.671,3.423 32.612,3.311 32.57,3.148 32.516,2.938 32.487,2.586 32.487,2.09 c 0,-0.497 0.025,-0.84 0.074,-1.025 0.05,-0.186 0.112,-0.31 0.188,-0.372 0.076,-0.061 0.162,-0.093 0.258,-0.093 0.098,0 0.185,0.032 0.262,0.096 0.075,0.061 0.136,0.173 0.177,0.336 0.054,0.207 0.084,0.561 0.084,1.058 0,0.496 -0.026,0.837 -0.075,1.023 -0.05,0.186 -0.112,0.31 -0.187,0.374 C 33.191,3.549 33.105,3.58 33.007,3.58 M 36.966,0 l -0.804,0 0,3.061 C 35.868,2.782 35.522,2.577 35.124,2.444 l 0,0.738 c 0.209,0.068 0.438,0.199 0.684,0.392 0.245,0.196 0.415,0.422 0.506,0.68 l 0.652,0 0,-4.254 z m 3.928,3.198 -0.779,-0.086 c -0.018,0.161 -0.068,0.281 -0.148,0.358 -0.08,0.077 -0.186,0.116 -0.313,0.116 -0.17,0 -0.313,-0.077 -0.431,-0.232 C 39.106,3.2 39.033,2.88 39.002,2.392 c 0.201,0.24 0.449,0.358 0.747,0.358 0.336,0 0.623,-0.129 0.862,-0.387 0.24,-0.259 0.36,-0.591 0.36,-1 0,-0.432 -0.127,-0.78 -0.378,-1.043 -0.251,-0.26 -0.575,-0.392 -0.97,-0.392 -0.423,0 -0.772,0.166 -1.044,0.497 -0.273,0.333 -0.411,0.878 -0.411,1.636 0,0.776 0.143,1.333 0.426,1.679 0.285,0.341 0.655,0.514 1.109,0.514 0.318,0 0.583,-0.092 0.791,-0.271 0.209,-0.18 0.342,-0.441 0.4,-0.785 m -1.823,-1.77 c 0,-0.264 0.059,-0.468 0.18,-0.611 0.12,-0.145 0.258,-0.217 0.412,-0.217 0.149,0 0.272,0.06 0.372,0.177 0.099,0.116 0.149,0.31 0.149,0.579 0,0.274 -0.054,0.476 -0.161,0.604 -0.106,0.13 -0.24,0.193 -0.4,0.193 -0.155,0 -0.286,-0.061 -0.393,-0.182 C 39.124,1.847 39.071,1.666 39.071,1.428"
           style="fill:#ed3539;fill-opacity:1;fill-rule:nonzero;stroke:none"
           id="path76" />
      </g>
      <g
         id="g78"
         transform="translate(97.8057,467.1323)">
        <path
           d="m 0,0 -0.634,0 c -0.019,0.144 -0.05,0.246 -0.093,0.306 -0.067,0.092 -0.18,0.139 -0.339,0.139 -0.157,0 -0.266,-0.036 -0.327,-0.109 -0.046,-0.055 -0.069,-0.129 -0.069,-0.222 0,-0.136 0.132,-0.241 0.396,-0.318 0.389,-0.113 0.635,-0.205 0.739,-0.274 0.266,-0.169 0.401,-0.433 0.401,-0.793 0,-0.436 -0.131,-0.755 -0.391,-0.954 -0.19,-0.144 -0.418,-0.216 -0.685,-0.216 -0.328,0 -0.593,0.081 -0.796,0.242 -0.253,0.203 -0.381,0.513 -0.381,0.928 l 0.661,0 c 0,-0.152 0.039,-0.27 0.116,-0.35 0.091,-0.098 0.231,-0.146 0.418,-0.146 0.151,0 0.26,0.042 0.331,0.126 0.055,0.064 0.083,0.141 0.083,0.231 0,0.139 -0.131,0.249 -0.391,0.329 -0.398,0.119 -0.643,0.207 -0.73,0.267 -0.265,0.17 -0.396,0.438 -0.396,0.801 0,0.301 0.067,0.551 0.202,0.75 0.172,0.254 0.432,0.381 0.781,0.381 0.31,0 0.554,-0.066 0.732,-0.197 C -0.124,0.74 0,0.432 0,0 m -4.183,-0.317 0.992,0 c -0.018,0.249 -0.078,0.435 -0.179,0.558 -0.086,0.102 -0.191,0.153 -0.316,0.153 -0.292,0 -0.458,-0.238 -0.497,-0.711 m 0.966,-1.043 0.661,0 c -0.076,-0.377 -0.224,-0.659 -0.442,-0.846 -0.181,-0.156 -0.392,-0.235 -0.633,-0.235 -0.375,0 -0.662,0.133 -0.866,0.4 -0.232,0.311 -0.348,0.794 -0.348,1.456 0,0.534 0.108,0.958 0.326,1.271 0.202,0.288 0.483,0.432 0.841,0.432 0.306,0 0.558,-0.116 0.754,-0.348 0.263,-0.315 0.395,-0.817 0.395,-1.507 l 0,-0.166 -1.673,0 c 0.022,-0.297 0.078,-0.507 0.17,-0.636 0.092,-0.128 0.225,-0.19 0.401,-0.19 0.097,0 0.185,0.032 0.263,0.095 0.079,0.064 0.129,0.155 0.151,0.274 m -2.19,1.347 0,-2.339 -0.643,0 0,2.06 c 0,0.232 -0.032,0.401 -0.095,0.504 -0.062,0.104 -0.147,0.157 -0.254,0.157 -0.154,0 -0.265,-0.061 -0.332,-0.181 -0.067,-0.122 -0.101,-0.29 -0.101,-0.505 l 0,-2.035 -0.644,0 0,2.035 c 0,0.215 -0.014,0.364 -0.045,0.45 -0.055,0.157 -0.169,0.236 -0.34,0.236 -0.144,0 -0.247,-0.059 -0.311,-0.179 -0.063,-0.118 -0.094,-0.278 -0.094,-0.482 l 0,-2.06 -0.643,0 0,3.381 0.615,0 0,-0.496 c 0.065,0.157 0.14,0.282 0.227,0.375 0.13,0.141 0.292,0.21 0.482,0.21 0.165,0 0.301,-0.044 0.409,-0.133 0.092,-0.077 0.182,-0.21 0.272,-0.401 0.097,0.196 0.197,0.333 0.298,0.413 0.101,0.081 0.218,0.121 0.354,0.121 0.251,0 0.451,-0.093 0.602,-0.28 0.163,-0.203 0.243,-0.486 0.243,-0.851 m -4.781,-1.119 0,0.433 c -0.035,-0.043 -0.08,-0.076 -0.14,-0.102 -0.06,-0.026 -0.16,-0.054 -0.301,-0.086 -0.141,-0.032 -0.243,-0.076 -0.303,-0.137 -0.086,-0.08 -0.129,-0.204 -0.129,-0.374 0,-0.141 0.033,-0.247 0.102,-0.318 0.054,-0.06 0.119,-0.089 0.192,-0.089 0.151,0 0.285,0.061 0.402,0.184 0.118,0.123 0.177,0.286 0.177,0.489 m 0.626,1.271 0,-1.83 c 0,-0.182 0.012,-0.309 0.037,-0.381 0.025,-0.072 0.061,-0.119 0.109,-0.14 l 0,-0.14 -0.698,0 c -0.024,0.114 -0.04,0.19 -0.046,0.227 -0.006,0.035 -0.009,0.096 -0.009,0.18 -0.099,-0.145 -0.194,-0.252 -0.285,-0.324 -0.147,-0.115 -0.316,-0.172 -0.505,-0.172 -0.206,0 -0.376,0.076 -0.511,0.229 -0.156,0.178 -0.235,0.432 -0.235,0.763 0,0.314 0.068,0.565 0.204,0.757 0.119,0.168 0.286,0.277 0.504,0.323 l 0.58,0.115 c 0.085,0.021 0.146,0.051 0.179,0.095 0.034,0.042 0.05,0.099 0.05,0.172 0,0.166 -0.048,0.277 -0.146,0.337 -0.065,0.037 -0.157,0.056 -0.276,0.056 -0.144,0 -0.249,-0.052 -0.313,-0.158 -0.043,-0.067 -0.07,-0.172 -0.082,-0.311 l -0.626,0 c 0.033,0.469 0.163,0.796 0.386,0.979 0.166,0.134 0.401,0.202 0.709,0.202 0.248,0 0.453,-0.057 0.615,-0.171 0.24,-0.165 0.359,-0.434 0.359,-0.808 m -4.101,-0.8 0,0.775 1.38,0 0,-2.466 -0.461,0 -0.073,0.572 c -0.135,-0.212 -0.252,-0.362 -0.35,-0.451 -0.187,-0.165 -0.414,-0.248 -0.68,-0.248 -0.423,0 -0.774,0.198 -1.053,0.598 -0.309,0.44 -0.464,1.042 -0.464,1.803 0,0.675 0.13,1.232 0.39,1.673 0.295,0.496 0.704,0.743 1.227,0.743 0.461,0 0.828,-0.178 1.1,-0.532 0.23,-0.302 0.344,-0.637 0.344,-1.006 l -0.688,0 c 0,0.132 -0.06,0.278 -0.176,0.44 -0.146,0.207 -0.328,0.31 -0.542,0.31 -0.27,0 -0.489,-0.127 -0.657,-0.381 -0.194,-0.292 -0.29,-0.711 -0.29,-1.257 0,-0.573 0.1,-0.991 0.299,-1.253 0.163,-0.216 0.382,-0.326 0.657,-0.326 0.203,0 0.374,0.092 0.517,0.272 0.143,0.18 0.237,0.424 0.283,0.734 l -0.763,0 z m -3.696,0.648 0,-2.339 -0.644,0 0,2.06 c 0,0.186 -0.018,0.326 -0.055,0.419 -0.065,0.161 -0.184,0.242 -0.359,0.242 -0.147,0 -0.268,-0.068 -0.363,-0.204 -0.095,-0.135 -0.142,-0.327 -0.142,-0.572 l 0,-1.945 -0.644,0 0,4.563 0.644,0 0,-1.614 c 0.046,0.145 0.135,0.267 0.268,0.369 0.134,0.102 0.283,0.152 0.449,0.152 0.251,0 0.452,-0.093 0.602,-0.28 0.163,-0.203 0.244,-0.486 0.244,-0.851 m -3.393,-1.106 0.652,0 c -0.024,-0.301 -0.1,-0.563 -0.23,-0.788 -0.201,-0.356 -0.499,-0.534 -0.891,-0.534 -0.414,0 -0.717,0.193 -0.909,0.578 -0.149,0.293 -0.222,0.663 -0.222,1.113 0,0.576 0.092,1.023 0.276,1.341 0.202,0.351 0.503,0.527 0.901,0.527 0.264,0 0.491,-0.083 0.68,-0.248 0.265,-0.228 0.395,-0.578 0.395,-1.049 l -0.652,0 c -0.013,0.137 -0.046,0.253 -0.102,0.35 -0.076,0.131 -0.174,0.198 -0.293,0.198 l -0.028,0 c -0.184,0 -0.32,-0.11 -0.409,-0.331 -0.071,-0.174 -0.106,-0.39 -0.106,-0.648 0,-0.297 0.022,-0.523 0.065,-0.68 0.076,-0.276 0.22,-0.413 0.432,-0.413 0.144,0 0.258,0.078 0.344,0.235 0.065,0.118 0.097,0.235 0.097,0.349 m -2.74,-0.013 0,0.433 c -0.033,-0.043 -0.08,-0.076 -0.14,-0.102 -0.059,-0.026 -0.16,-0.054 -0.301,-0.086 -0.142,-0.032 -0.242,-0.076 -0.303,-0.137 -0.086,-0.08 -0.129,-0.204 -0.129,-0.374 0,-0.141 0.033,-0.247 0.1,-0.318 0.057,-0.06 0.12,-0.089 0.194,-0.089 0.15,0 0.284,0.061 0.403,0.184 0.117,0.123 0.176,0.286 0.176,0.489 m 0.626,1.271 0,-1.83 c 0,-0.182 0.011,-0.309 0.036,-0.381 0.025,-0.072 0.061,-0.119 0.11,-0.14 l 0,-0.14 -0.698,0 c -0.025,0.114 -0.041,0.19 -0.046,0.227 -0.006,0.035 -0.01,0.096 -0.01,0.18 -0.097,-0.145 -0.193,-0.252 -0.285,-0.324 -0.148,-0.115 -0.316,-0.172 -0.506,-0.172 -0.205,0 -0.375,0.076 -0.51,0.229 -0.156,0.178 -0.234,0.432 -0.234,0.763 0,0.314 0.067,0.565 0.202,0.757 0.12,0.168 0.288,0.277 0.506,0.323 l 0.579,0.115 c 0.086,0.021 0.146,0.051 0.179,0.095 0.035,0.042 0.051,0.099 0.051,0.172 0,0.166 -0.049,0.277 -0.147,0.337 -0.065,0.037 -0.156,0.056 -0.277,0.056 -0.144,0 -0.247,-0.052 -0.312,-0.158 -0.042,-0.067 -0.07,-0.172 -0.083,-0.311 l -0.624,0 c 0.033,0.469 0.162,0.796 0.386,0.979 0.165,0.134 0.401,0.202 0.708,0.202 0.248,0 0.452,-0.057 0.615,-0.171 0.24,-0.165 0.36,-0.434 0.36,-0.808 m -4.147,-0.456 0.992,0 c -0.019,0.249 -0.078,0.435 -0.179,0.558 -0.086,0.102 -0.191,0.153 -0.317,0.153 -0.291,0 -0.458,-0.238 -0.496,-0.711 m 0.965,-1.043 0.661,0 c -0.076,-0.377 -0.223,-0.659 -0.44,-0.846 -0.181,-0.156 -0.393,-0.235 -0.634,-0.235 -0.375,0 -0.663,0.133 -0.866,0.4 -0.232,0.311 -0.348,0.794 -0.348,1.456 0,0.534 0.109,0.958 0.326,1.271 0.202,0.288 0.482,0.432 0.842,0.432 0.306,0 0.557,-0.116 0.753,-0.348 0.264,-0.315 0.396,-0.817 0.396,-1.507 l 0,-0.166 -1.673,0 c 0.02,-0.297 0.078,-0.507 0.169,-0.636 0.092,-0.128 0.225,-0.19 0.401,-0.19 0.097,0 0.185,0.032 0.263,0.095 0.079,0.064 0.129,0.155 0.15,0.274 m -4.193,2.783 0,-0.991 0.809,0 c 0.147,0 0.263,0.038 0.346,0.114 0.094,0.089 0.142,0.222 0.142,0.394 0,0.178 -0.043,0.304 -0.127,0.375 -0.084,0.072 -0.21,0.108 -0.379,0.108 l -0.791,0 z m 0,-1.766 0,-1.221 0.846,0 c 0.174,0 0.307,0.054 0.398,0.163 0.09,0.108 0.134,0.278 0.134,0.511 0,0.182 -0.046,0.319 -0.141,0.41 -0.095,0.092 -0.212,0.137 -0.354,0.137 l -0.883,0 z m -0.662,-2.009 0,4.563 1.61,0 c 0.36,0 0.631,-0.135 0.809,-0.405 0.134,-0.208 0.202,-0.462 0.202,-0.764 0,-0.284 -0.05,-0.509 -0.147,-0.673 -0.059,-0.098 -0.144,-0.182 -0.259,-0.255 0.191,-0.101 0.327,-0.256 0.411,-0.464 0.071,-0.174 0.105,-0.387 0.105,-0.643 0,-0.185 -0.024,-0.358 -0.073,-0.517 -0.05,-0.158 -0.12,-0.299 -0.212,-0.422 -0.114,-0.15 -0.227,-0.251 -0.34,-0.306 -0.16,-0.075 -0.395,-0.114 -0.707,-0.114 l -1.399,0 z m -2.141,2.339 0,-2.339 -0.644,0 0,2.06 c 0,0.186 -0.019,0.326 -0.055,0.419 -0.066,0.161 -0.185,0.242 -0.359,0.242 -0.148,0 -0.269,-0.068 -0.363,-0.204 -0.096,-0.135 -0.143,-0.327 -0.143,-0.572 l 0,-1.945 -0.643,0 0,3.381 0.616,0 0,-0.496 c 0.073,0.163 0.15,0.284 0.23,0.369 0.137,0.145 0.308,0.216 0.514,0.216 0.251,0 0.452,-0.093 0.602,-0.28 0.163,-0.203 0.245,-0.486 0.245,-0.851 m -3.495,-1.119 0,0.433 c -0.034,-0.043 -0.08,-0.076 -0.139,-0.102 -0.06,-0.026 -0.161,-0.054 -0.302,-0.086 -0.141,-0.032 -0.242,-0.076 -0.304,-0.137 -0.086,-0.08 -0.128,-0.204 -0.128,-0.374 0,-0.141 0.033,-0.247 0.1,-0.318 0.056,-0.06 0.12,-0.089 0.193,-0.089 0.151,0 0.285,0.061 0.403,0.184 0.118,0.123 0.177,0.286 0.177,0.489 m 0.625,1.271 0,-1.83 c 0,-0.182 0.012,-0.309 0.037,-0.381 0.024,-0.072 0.062,-0.119 0.11,-0.14 l 0,-0.14 -0.698,0 c -0.024,0.114 -0.04,0.19 -0.046,0.227 -0.007,0.035 -0.01,0.096 -0.01,0.18 -0.097,-0.145 -0.193,-0.252 -0.285,-0.324 -0.147,-0.115 -0.315,-0.172 -0.506,-0.172 -0.205,0 -0.375,0.076 -0.509,0.229 -0.157,0.178 -0.235,0.432 -0.235,0.763 0,0.314 0.067,0.565 0.202,0.757 0.12,0.168 0.288,0.277 0.506,0.323 l 0.578,0.115 c 0.086,0.021 0.147,0.051 0.181,0.095 0.032,0.042 0.05,0.099 0.05,0.172 0,0.166 -0.049,0.277 -0.147,0.337 -0.064,0.037 -0.157,0.056 -0.275,0.056 -0.144,0 -0.249,-0.052 -0.314,-0.158 -0.042,-0.067 -0.07,-0.172 -0.081,-0.311 l -0.627,0 c 0.034,0.469 0.163,0.796 0.386,0.979 0.166,0.134 0.402,0.202 0.709,0.202 0.248,0 0.453,-0.057 0.615,-0.171 0.24,-0.165 0.359,-0.434 0.359,-0.808 m -2.667,1.298 -0.643,0 0,0.826 0.643,0 0,-0.826 z m -0.643,-0.408 0.643,0 0,-3.381 -0.643,0 0,3.381 z M -39.868,0 -40.501,0 c -0.018,0.144 -0.05,0.246 -0.093,0.306 -0.067,0.092 -0.18,0.139 -0.341,0.139 -0.155,0 -0.264,-0.036 -0.326,-0.109 -0.045,-0.055 -0.068,-0.129 -0.068,-0.222 0,-0.136 0.132,-0.241 0.394,-0.318 0.391,-0.113 0.637,-0.205 0.742,-0.274 0.266,-0.169 0.399,-0.433 0.399,-0.793 0,-0.436 -0.13,-0.755 -0.391,-0.954 -0.19,-0.144 -0.418,-0.216 -0.685,-0.216 -0.327,0 -0.593,0.081 -0.795,0.242 -0.254,0.203 -0.382,0.513 -0.382,0.928 l 0.663,0 c 0,-0.152 0.037,-0.27 0.114,-0.35 0.092,-0.098 0.232,-0.146 0.419,-0.146 0.151,0 0.261,0.042 0.332,0.126 0.054,0.064 0.081,0.141 0.081,0.231 0,0.139 -0.129,0.249 -0.39,0.329 -0.399,0.119 -0.643,0.207 -0.731,0.267 -0.264,0.17 -0.396,0.438 -0.396,0.801 0,0.301 0.067,0.551 0.203,0.75 0.172,0.254 0.431,0.381 0.782,0.381 0.309,0 0.553,-0.066 0.73,-0.197 0.248,-0.181 0.372,-0.489 0.372,-0.921 m -4.431,-0.624 0.846,0 -0.414,1.806 -0.432,-1.806 z m -0.184,-0.786 -0.231,-0.942 -0.725,0 1.182,4.563 0.804,0 1.149,-4.563 -0.744,0 -0.212,0.942 -1.223,0 z m -1.287,3.177 0,-2.339 -0.643,0 0,2.059 c 0,0.186 -0.019,0.326 -0.056,0.42 -0.063,0.16 -0.183,0.24 -0.358,0.24 -0.147,0 -0.268,-0.066 -0.363,-0.203 -0.095,-0.135 -0.143,-0.326 -0.143,-0.571 l 0,-1.945 -0.644,0 0,4.564 0.644,0 0,-1.616 c 0.046,0.145 0.136,0.268 0.269,0.37 0.134,0.101 0.283,0.152 0.448,0.152 0.252,0 0.452,-0.093 0.602,-0.28 0.163,-0.203 0.244,-0.488 0.244,-0.851 m -3.098,1.958 0,-0.916 0.405,0 0,-0.636 -0.405,0 0,-1.83 c 0,-0.114 0.014,-0.189 0.043,-0.226 0.029,-0.036 0.103,-0.054 0.224,-0.054 l 0.138,0 0,-0.661 c -0.049,-0.008 -0.104,-0.012 -0.163,-0.012 l -0.14,0 -0.084,0 c -0.263,0 -0.444,0.066 -0.543,0.197 -0.08,0.105 -0.119,0.286 -0.119,0.54 l 0,2.046 -0.331,0 0,0.636 0.331,0 0,0.916 0.644,0 z m -2.739,-2.39 -0.12,-0.979 c 0.088,0.084 0.16,0.142 0.216,0.172 0.101,0.054 0.225,0.082 0.372,0.082 0.252,0 0.468,-0.112 0.653,-0.337 0.22,-0.271 0.33,-0.647 0.33,-1.125 0,-0.406 -0.075,-0.753 -0.23,-1.043 -0.207,-0.388 -0.526,-0.584 -0.955,-0.584 -0.283,0 -0.522,0.107 -0.718,0.324 -0.227,0.251 -0.339,0.587 -0.339,1.011 l 0.644,0 c 0.015,-0.191 0.059,-0.34 0.132,-0.448 0.074,-0.108 0.179,-0.162 0.318,-0.162 0.153,0 0.272,0.078 0.358,0.235 0.086,0.156 0.129,0.358 0.129,0.604 0,0.225 -0.037,0.41 -0.111,0.559 -0.085,0.169 -0.208,0.254 -0.367,0.254 -0.101,0 -0.188,-0.028 -0.26,-0.083 -0.072,-0.055 -0.129,-0.137 -0.172,-0.248 l -0.57,0.038 0.22,2.479 1.794,0 0,-0.749 -1.324,0 z"
           style="fill:#11a7b9;fill-opacity:1;fill-rule:nonzero;stroke:none"
           id="path80" />
      </g>
      <g
         id="g82"
         transform="translate(56.4907,458.5024)">
        <path
           d="m 0,0 0,4.129 2.089,0 C 2.798,4.129 3.317,3.899 3.645,3.44 3.887,3.102 4.006,2.676 4.006,2.162 4.006,1.607 3.875,1.138 3.613,0.752 3.267,0.251 2.746,0 2.049,0 L 0,0 Z m 0.973,3.416 0,-2.703 0.957,0 c 0.374,0 0.651,0.146 0.836,0.437 0.152,0.241 0.23,0.559 0.23,0.955 0,0.532 -0.128,0.902 -0.382,1.109 C 2.447,3.349 2.215,3.416 1.918,3.416 l -0.945,0 z M 5.832,0.851 5.504,0 4.466,0 6.155,4.129 7.304,4.129 8.945,0 7.881,0 7.58,0.851 l -1.748,0 z m 0.263,0.714 1.209,0 L 6.712,3.198 6.095,1.565 Z m 8.328,2.564 0.919,0 L 15.342,0 14.357,0 12.439,2.945 12.427,0 l -0.92,0 0,4.129 1.038,0 1.866,-2.875 0.012,2.875 z M 17.379,0.851 17.05,0 l -1.038,0 1.69,4.129 1.148,0 1.642,-4.129 -1.064,0 -0.303,0.851 -1.746,0 z m 0.263,0.714 1.208,0 -0.591,1.633 -0.617,-1.633 z m 6.397,2.564 0.919,0 L 24.958,0 23.974,0 22.056,2.945 22.042,0 l -0.919,0 0,4.129 1.037,0 1.866,-2.875 0.013,2.875 z m 4.296,-2.599 0,0.701 1.97,0 0,-2.231 -0.657,0 -0.105,0.518 C 29.35,0.325 29.184,0.191 29.044,0.109 c -0.268,-0.149 -0.59,-0.224 -0.973,-0.224 -0.604,0 -1.105,0.179 -1.504,0.54 -0.442,0.399 -0.663,0.944 -0.663,1.634 0,0.61 0.186,1.113 0.557,1.513 0.421,0.448 1.006,0.671 1.755,0.671 0.657,0 1.18,-0.161 1.57,-0.482 0.329,-0.273 0.492,-0.575 0.492,-0.908 l -0.985,0 c 0,0.119 -0.084,0.251 -0.249,0.396 -0.211,0.188 -0.468,0.282 -0.776,0.282 -0.385,0 -0.698,-0.115 -0.939,-0.345 -0.275,-0.264 -0.412,-0.645 -0.412,-1.139 0,-0.517 0.141,-0.895 0.425,-1.133 0.233,-0.195 0.546,-0.292 0.94,-0.292 0.289,0 0.534,0.08 0.739,0.245 0.204,0.161 0.337,0.383 0.403,0.663 l -1.089,0 z"
           style="fill:#11a7b9;fill-opacity:1;fill-rule:nonzero;stroke:none"
           id="path84" />
      </g>
      <g
         id="g86"
         transform="translate(73.356,507.0654)">
        <path
           d="M 0,0 C -0.871,-0.667 -3.836,1.177 -5.134,2.108 -6.433,3.04 -7.588,3.566 -8.887,2.88 -10.184,2.192 -11.344,1.206 -9.21,0.434 c 2.134,-0.77 4.948,-0.888 4.948,-1.498 0,-0.611 -7.863,1.388 -9.597,1.327 -1.734,-0.062 -4.772,-0.675 -4.372,-1.464 0.402,-0.791 2.671,1.005 7.145,0.651 C 4.332,-1.769 10.11,-22.115 -3.221,-31.083 6.76,-24.306 8.892,-14.079 6.22,-6.45 3.563,1.135 -3.633,5.909 -8.979,5.476 -9.904,5.4 -9.989,4.651 -8.566,4.498 -7.143,4.343 -5.501,4.822 -3.917,4.071 -2.332,3.321 0.758,1.113 0,0"
           style="fill:#f9a236;fill-opacity:1;fill-rule:evenodd;stroke:none"
           id="path88" />
      </g>
      <g
         id="g90"
         transform="translate(73.6504,512.6162)">
        <path
           d="M 0,0 C 0,0 -1.999,3.669 -4.963,3.504 -7.925,3.337 -7.545,1.708 -5.711,1.736 -3.879,1.765 -1.786,1.891 0,0"
           style="fill:#11a7b9;fill-opacity:1;fill-rule:evenodd;stroke:none"
           id="path92" />
      </g>
      <g
         id="g94"
         transform="translate(67.8828,472.7852)">
        <path
           d="M 0,0 C 23.867,10.991 23.835,30.075 19.387,41.196 16.396,48.675 9.289,53.906 5.839,54.929 0.442,56.528 0.941,54.741 2.685,54.12 4.428,53.5 6.914,53.896 9.102,52.447 11.292,51 15.931,46 14.229,44.89 13.133,44.175 8.596,47.809 6.8,49.831 6.07,50.652 4.668,51.82 3.556,51.931 2.221,52.065 0.627,51.329 -0.084,50.82 -1.301,49.95 0.118,48.586 2.487,47.621 4.77,46.69 8.557,45.133 7.965,45.054 c -3.067,-0.415 -11.979,4.485 -18.151,3.213 -1.396,-0.288 -2.343,-0.866 -1.992,-1.508 0.317,-0.578 1.246,-0.097 2.824,0.212 6.558,1.282 13.258,-0.7 18.094,-5.585 C 18.889,31.131 19.951,9.605 0,0"
           style="fill:#11a7b9;fill-opacity:1;fill-rule:evenodd;stroke:none"
           id="path96" />
      </g>
      <g
         id="g98"
         transform="translate(60.5254,501.0815)">
        <path
           d="m 0,0 0.884,-6.447 c 1.873,0.857 0.755,2.951 3.159,3.38 -1.48,-1.859 -0.521,-1.95 -1.117,-3.809 l 4.694,3.627 -4.162,-4.98 c 2.17,-0.467 2.808,1.925 4.706,0.43 C 5.709,-8.191 7.099,-8.488 4.693,-9.724 l 5.838,-0.805 -6.229,-0.858 c 0.949,-1.611 2.899,-0.585 3.37,-2.9 -1.953,1.471 -1.913,0.326 -3.93,0.976 l 3.902,-4.655 -5.121,3.94 c -0.3,-1.898 1.453,-2.457 0.39,-4.42 -0.337,2.431 -0.821,1.274 -1.965,3.562 l -0.933,-6.187 -0.898,6.409 c -1.847,-0.872 -0.742,-2.939 -3.134,-3.369 1.468,1.845 0.533,1.949 1.12,3.77 l -4.762,-3.6 4.175,4.927 c -2.172,0.495 -2.848,-1.873 -4.719,-0.364 2.509,0.364 1.041,0.689 3.616,1.95 l -5.956,0.819 6.202,0.857 c -0.937,1.575 -2.874,0.612 -3.318,2.9 1.951,-1.509 1.914,-0.325 3.993,-1.053 l -3.911,4.666 5.08,-3.898 c 0.288,1.898 -1.441,2.457 -0.389,4.405 0.337,-2.457 0.831,-1.234 2.015,-3.666 L 0,0 Z m -0.015,-12.836 c 1.278,0 2.316,1.039 2.316,2.313 0,1.262 -1.038,2.288 -2.316,2.288 -1.259,0 -2.298,-1.026 -2.298,-2.288 0,-1.274 1.039,-2.313 2.298,-2.313 M 0,-12.163 c 0.888,0 1.623,0.733 1.623,1.634 0,0.898 -0.735,1.62 -1.623,1.62 -0.902,0 -1.632,-0.722 -1.632,-1.62 0,-0.901 0.73,-1.634 1.632,-1.634"
           style="fill:#f04c41;fill-opacity:1;fill-rule:nonzero;stroke:none"
           id="path100" />
      </g>
    </g>
  </g>
</svg>
